<?xml version="1.0" encoding="utf-8"?>
<!-- Generator: Adobe Illustrator 16.0.0, SVG Export Plug-In . SVG Version: 6.00 Build 0)  -->
<!DOCTYPE svg PUBLIC "-//W3C//DTD SVG 1.0//EN" "http://www.w3.org/TR/2001/REC-SVG-20010904/DTD/svg10.dtd">
<svg version="1.0" id="Layer_1" xmlns="http://www.w3.org/2000/svg" xmlns:xlink="http://www.w3.org/1999/xlink" x="0px" y="0px"
	 width="612px" height="256.302px" viewBox="0 267.849 612 256.302" enable-background="new 0 267.849 612 256.302"
	 xml:space="preserve">
<g>
	<g>
		<path fill="#FFFFFF" d="M89.423,495.229c0,2.66-0.333,5.319-1.33,7.646c-0.665,2.327-1.662,4.653-2.992,6.315
			c-3.324,4.986-8.643,8.976-15.624,11.303s-15.957,3.657-26.927,3.657c-1.995,0-4.654,0-7.313-0.333
			c-2.992,0-5.983-0.332-8.976-0.997c-3.324-0.665-6.316-1.662-9.308-2.659c-2.992-1.33-5.651-2.992-8.311-4.986
			c-1.662-1.662-3.324-2.992-4.321-4.986c-0.998-1.662-1.995-3.324-2.327-4.654c-0.665-1.662-0.998-2.992-1.33-4.321
			c-0.333-1.33-0.333-2.327-0.665-3.325l28.589-0.664c0.333,2.659,2.327,4.986,4.986,6.648c2.66,1.662,6.981,2.659,12.965,2.659
			c1.662,0,3.324,0,4.986-0.332c1.995-0.333,3.657-0.665,4.986-1.662c0.998-0.665,1.995-1.33,2.66-2.66
			c0.997-0.997,1.33-2.326,1.33-3.656c0-1.995-0.665-3.324-1.995-4.321c-1.33-0.998-2.327-1.662-3.657-1.995
			c-0.997-0.332-2.659-0.665-4.986-1.329c-2.327-0.333-4.986-0.998-7.646-1.662c-2.659-0.665-5.319-0.998-7.978-1.33
			c-2.327-0.332-4.322-0.665-5.319-0.997c-3.324-0.665-6.316-1.662-9.308-2.66c-0.665-0.332-1.995-0.664-3.657-1.662
			c-1.662-0.664-3.657-1.994-5.319-3.324c-1.662-1.662-3.324-3.656-4.654-6.315c-1.33-2.66-1.995-5.651-1.995-9.309
			c0-2.991,0.665-5.983,1.662-8.643c1.33-2.66,2.659-4.986,4.654-7.313c2.327-2.327,4.986-4.321,7.979-5.651
			c2.992-1.33,5.983-2.327,9.308-2.992c3.325-0.665,6.316-1.329,9.308-1.329c2.992-0.333,5.651-0.333,7.979-0.333
			c4.986,0,9.64,0.333,14.294,0.997c4.321,0.665,7.978,1.33,10.638,2.327c3.989,1.33,6.981,2.66,8.976,4.654
			c2.327,1.994,3.989,3.656,5.319,5.651c1.33,1.994,1.994,3.989,2.659,5.651c0.333,1.994,0.665,3.324,0.998,4.321l-28.589,1.662
			c-0.333-0.665-0.333-1.33-0.998-2.327c-0.333-0.665-0.997-1.662-1.995-2.327c-0.997-0.664-2.327-1.329-3.989-1.994
			s-4.322-0.665-7.313-0.665c-0.998,0-1.995,0-3.657,0.332c-1.662,0-2.992,0.333-4.322,0.998c-1.33,0.332-2.659,0.997-3.324,1.994
			c-0.997,0.997-1.33,1.995-1.33,3.657c0,0.997,0.333,1.994,0.997,2.991c0.665,0.665,1.33,0.998,2.327,1.662
			c1.33,0.665,2.327,0.998,3.989,1.662c1.33,0.333,2.659,0.998,4.321,1.33c1.33,0.332,2.66,0.665,3.989,0.997
			c2.66,0.665,5.651,1.33,8.311,1.662c2.66,0.665,5.651,1.33,8.311,1.662c1.662,0.333,3.324,0.665,5.319,1.33
			c1.662,0.332,3.324,0.997,5.319,1.662c2.659,0.997,4.986,2.327,6.981,3.656c1.662,1.662,3.324,2.992,4.321,4.654
			c0.998,1.662,1.995,3.324,2.327,5.319C89.091,491.573,89.423,493.567,89.423,495.229"/>
		<polygon fill="#FFFFFF" points="92.415,521.491 92.415,440.379 178.182,440.379 178.182,458.663 121.668,458.663 121.668,471.96 
			173.86,471.96 173.86,490.243 121.668,490.243 121.668,503.208 179.179,503.208 179.179,521.491 		"/>
		<path fill="#FFFFFF" d="M233.032,462.984l-9.308,27.592h18.948L233.032,462.984z M253.31,521.491l-4.321-13.297H217.74
			l-4.321,13.297h-31.913l34.905-81.112h33.243l35.237,81.112H253.31z"/>
		<path fill="#FFFFFF" d="M332.096,500.216c0,1.662-0.332,3.324-0.665,4.654c-0.332,1.662-0.997,3.324-1.662,4.654
			c-0.997,1.662-1.994,3.324-3.324,4.653c-1.662,1.662-3.324,2.992-4.986,3.657c-1.995,0.997-3.657,1.662-5.651,1.994
			c-1.994,0.333-3.989,0.665-5.983,0.998c-1.995,0-3.989,0-6.316,0h-16.622v-18.616h6.649c1.662,0,2.992,0,4.321,0
			s2.327-0.333,3.324-0.997c0.998-0.665,1.662-1.33,1.995-2.66c0.333-0.997,0.665-2.659,0.665-4.653v-53.521h29.253v55.516
			C332.096,497.225,332.096,498.554,332.096,500.216"/>
		<polygon fill="#FFFFFF" points="341.736,521.491 341.736,440.379 427.503,440.379 427.503,458.663 370.989,458.663 
			370.989,471.96 423.181,471.96 423.181,490.243 370.989,490.243 370.989,503.208 428.5,503.208 428.5,521.491 		"/>
		<polygon fill="#FFFFFF" points="492.326,458.663 492.326,521.491 462.74,521.491 462.74,458.663 434.151,458.663 434.151,440.047 
			520.915,440.047 520.915,458.663 		"/>
		<path fill="#FFFFFF" d="M612,495.229c0,2.66-0.332,5.319-1.33,7.646c-0.997,2.327-1.994,4.653-2.991,6.315
			c-3.324,4.986-8.644,8.976-15.624,11.303c-6.981,2.327-15.957,3.657-26.927,3.657c-1.995,0-4.654,0-7.313-0.333
			c-2.992,0-5.984-0.332-8.976-0.997c-3.324-0.665-6.316-1.662-9.308-2.659c-2.992-1.33-5.984-2.992-8.312-4.986
			c-1.662-1.662-3.324-2.992-4.321-4.986c-0.997-1.662-1.994-3.324-2.327-4.654c-0.665-1.662-0.997-2.992-1.329-4.321
			c-0.333-1.33-0.333-2.327-0.665-3.325l28.589-0.664c0.332,2.659,2.327,4.986,4.986,6.648c2.992,1.662,6.98,2.659,12.965,2.659
			c1.662,0,3.324,0,4.986-0.332c1.994-0.333,3.656-0.665,4.986-1.662c0.997-0.665,1.994-1.33,2.659-2.66
			c0.665-0.997,1.33-2.326,1.33-3.656c0-1.995-0.665-3.324-1.995-4.321c-1.329-0.998-2.327-1.662-3.656-1.995
			c-0.997-0.332-2.66-0.665-4.986-1.329c-2.327-0.333-4.986-0.998-7.646-1.662c-2.659-0.665-5.318-0.998-7.978-1.33
			c-2.327-0.332-4.322-0.665-5.319-0.997c-3.324-0.665-6.316-1.662-9.308-2.66c-0.665-0.332-1.995-0.664-3.657-1.662
			c-1.662-0.664-3.656-1.994-5.318-3.324c-1.995-1.662-3.657-3.656-4.986-6.315c-1.33-2.66-1.995-5.651-1.995-9.309
			c0-2.991,0.665-5.983,1.662-8.643c1.33-2.66,2.659-4.986,4.654-7.313c2.327-2.327,4.986-4.322,7.979-5.651
			c2.991-1.33,5.983-2.327,9.308-2.992c2.992-0.665,6.316-1.329,9.308-1.329c2.992-0.333,5.651-0.333,7.979-0.333
			c4.986,0,9.641,0.333,14.295,0.997c4.653,0.665,7.978,1.33,10.638,2.327c3.988,1.33,6.98,2.659,8.975,4.654
			c2.327,1.994,3.989,3.656,5.319,5.651c1.33,1.994,1.995,3.989,2.659,5.651c0.333,1.994,0.665,3.324,0.998,4.321l-27.925,1.662
			c-0.332-0.665-0.332-1.33-0.664-2.327c-0.333-0.665-0.998-1.662-1.995-2.327c-0.997-0.664-2.327-1.329-4.321-1.994
			c-1.662-0.665-4.321-0.665-7.313-0.665c-0.997,0-1.995,0-3.657,0.332c-1.329,0-2.991,0.333-4.321,0.998
			c-1.33,0.332-2.659,0.997-3.656,1.994c-0.998,0.997-1.33,1.995-1.33,3.657c0,0.997,0.332,1.994,0.997,2.991
			c0.333,0.665,1.33,0.998,2.327,1.662c1.33,0.665,2.659,0.998,3.989,1.662c1.33,0.333,2.992,0.998,4.321,1.33
			c1.33,0.332,2.66,0.665,3.989,0.997c2.659,0.665,5.651,1.33,8.311,1.662c2.66,0.665,5.651,1.33,8.311,1.662
			c1.663,0.333,3.325,0.665,5.319,1.33c1.662,0.332,3.324,0.997,5.318,1.662c2.66,0.997,4.987,2.327,6.649,3.656
			c1.662,1.662,3.324,2.992,4.321,4.654s1.994,3.324,2.327,5.319C611.668,491.573,612,493.567,612,495.229"/>
		<path fill="#FFFFFF" d="M610.67,267.849c-1.662,0-3.988,0.665-6.315,1.33l0.664-0.333c0,0-78.12,15.624-60.834,15.624
			c9.308,0,14.959,0.998,18.616,1.662C488.004,321.37,356.03,396.499,327.774,407.469c0,0,0,0-0.333,0
			c-1.329,0-2.659,0.332-3.989,0.332c-5.318,0-8.643-1.662-10.638-3.988c-1.329-1.662-2.326-3.324-2.991-5.651
			c-0.665-1.662-0.998-3.325-1.33-5.319c-1.662-7.646-4.321-17.286-18.284-16.954l0,0h-0.665c-0.665,0-1.33,0-1.995,0
			c-0.333,0-0.665,0-0.998,0c-0.332,0-0.997,0-1.33,0.333c-0.333,0-0.665,0-0.997,0.332c-0.665,0-0.998,0.333-1.33,0.333
			c-0.333,0-0.665,0-0.998,0.333c-0.333,0-0.997,0.333-1.33,0.333s-0.665,0.333-0.998,0.333s-0.997,0.332-1.33,0.332
			s-0.665,0.333-0.997,0.333c-0.333,0.333-0.998,0.333-1.33,0.665c-0.332,0-0.665,0.333-0.665,0.333
			c-0.665,0.332-1.33,0.665-1.995,0.997c0,0,0,0-0.333,0c-0.665,0.333-1.662,0.665-2.327,0.998l0,0
			c-0.665,0.332-1.33,0.665-1.994,0.997l-0.333,0.333c-0.665,0.333-1.33,0.665-1.662,0.997l-0.333,0.333
			c-0.665,0.333-1.33,0.665-1.662,0.998c0,0-0.333,0-0.333,0.332c-0.665,0.333-1.33,0.665-1.662,1.33c0,0,0,0-0.333,0.332
			c-0.665,0.333-1.33,0.665-1.995,1.33l0,0c-0.665,0.332-1.33,0.997-1.995,1.33l-0.332,0.333c0,0,0,0-0.333,0
			c-1.33,0.997-2.66,1.995-3.989,2.659c-1.33,0.998-2.659,1.995-3.989,2.992c-2.659,1.994-5.319,3.656-7.978,5.318
			c-0.333,0-0.333,0.333-0.665,0.333c-1.33,0.665-2.327,1.329-3.324,1.994c-0.333,0-0.333,0.333-0.665,0.333
			c-1.33,0.664-2.66,1.329-3.657,1.662c-0.333,0-0.333,0.332-0.665,0.332c-1.33,0.665-2.66,0.997-3.989,1.33l0,0
			c-1.33,0.332-2.659,0.664-3.989,0.997c-0.333,0-0.333,0-0.665,0c-1.33,0-2.66,0.332-3.989,0.332h-0.333
			c-0.997,0-1.662,0-2.327-0.332c-0.333,0-0.665,0-0.998,0c-0.665,0-1.33-0.333-1.662-0.333s-0.665-0.332-0.997-0.332h-0.333
			c-1.662-0.665-2.992-1.662-3.989-2.659c-1.33-1.662-2.327-3.324-2.992-5.651c-0.665-1.662-0.998-3.324-1.33-5.319
			c-1.33-5.984-3.324-13.297-10.638-15.957c0,0,0,0-0.332,0c-0.333,0-0.665-0.333-1.33-0.333c0,0-0.333,0-0.665,0
			c-0.333,0-0.665-0.333-1.33-0.333c-0.332,0-0.665,0-0.997,0s-0.665,0-0.997-0.333c-0.665,0-1.33,0-1.995,0h-0.333
			c-8.643,0.333-15.957,3.324-23.27,7.979c-1.33,0.665-2.66,1.662-3.657,2.327l0,0l0,0c-0.997,0.665-1.995,1.33-2.992,1.995
			c0,0-0.333,0-0.333,0.333l0,0c-0.333,0.333-0.665,0.333-0.997,0.665c-1.33,0.997-2.66,1.995-3.989,2.659
			c-1.33,0.998-2.66,1.995-3.989,2.992c-0.333,0.332-0.333,0.332-0.665,0.332c-0.332,0.333-0.997,0.665-1.33,0.997
			c-0.333,0.333-0.333,0.333-0.665,0.665c-0.332,0.333-0.665,0.665-1.33,0.665c-0.333,0.332-0.665,0.332-0.997,0.665
			c-0.333,0.332-0.665,0.332-0.998,0.665c-0.332,0.332-0.665,0.332-0.997,0.665c-0.333,0.332-0.665,0.332-0.998,0.664
			c-0.332,0.333-0.665,0.333-0.997,0.665c-0.333,0.333-0.665,0.333-0.997,0.665c-0.333,0.332-0.665,0.332-0.998,0.665
			c-0.333,0.332-0.665,0.332-0.997,0.332c-0.333,0.333-0.665,0.333-0.998,0.665c-0.332,0-0.332,0.332-0.665,0.332
			c-0.665,0.333-1.662,0.665-2.327,0.998c-0.333,0-0.333,0.332-0.665,0.332c-0.332,0-0.665,0.332-0.997,0.332
			s-0.665,0.333-0.998,0.333c-0.332,0.332-0.665,0.332-0.997,0.332s-0.665,0.333-0.997,0.333c-0.333,0-0.665,0.332-0.998,0.332
			l-0.997,0.332c-0.333,0-0.665,0.333-0.998,0.333s-0.665,0-0.997,0.332c-0.333,0-0.665,0-0.998,0.333c-0.332,0-0.665,0-1.33,0
			c-0.333,0-0.665,0-0.997,0c-0.665,0-1.33,0-1.995,0l0,0c-0.998,0-1.662,0-2.66-0.333c-0.332,0-0.665,0-0.665,0
			c-0.665,0-1.33-0.332-2.327-0.332c-0.333,0-0.333-0.333-0.665-0.333c-0.332-0.332-0.997-0.332-1.33-0.664
			c-0.333,0-0.333-0.333-0.665-0.333c-0.333-0.332-0.998-0.665-1.33-0.665c-0.333-0.332-0.333-0.332-0.665-0.664
			c-0.333-0.333-0.333-0.333-0.665-0.665c0,0-0.333-0.333-0.333-0.665c-0.333-0.332-0.665-0.665-0.665-0.997
			c-0.333-0.333-0.333-0.665-0.333-0.665c0-0.332-0.333-0.332-0.333-0.665c-0.333-0.665-0.665-1.329-0.665-1.994c0,0,0,0,0-0.333
			c-0.665-1.662-0.997-3.656-1.662-5.651c-1.33-5.984-3.324-13.297-10.638-15.957c0,0,0,0-0.333,0c-0.332,0-0.997-0.333-1.33-0.333
			h-0.333c-0.332,0-0.997-0.333-1.33-0.333s-0.665,0-0.665,0c-0.333,0-0.665,0-1.33-0.333c-0.665,0-1.33,0-1.995,0h-0.997h-0.333
			h-0.665l-3.325,0.333c-0.332,0-0.997,0.333-1.33,0.333c-0.997,0.333-1.995,0.333-2.992,0.665
			c-0.665,0.333-0.998,0.333-1.662,0.665c-0.998,0.333-1.662,0.665-2.66,0.998c-0.665,0.332-1.33,0.332-1.662,0.665
			c-0.997,0.333-1.662,0.665-2.659,1.33c-0.665,0.332-0.998,0.665-1.662,0.665c-0.998,0.333-1.662,0.998-2.66,1.662
			c-0.333,0.333-0.997,0.333-1.33,0.665c-1.33,0.665-2.66,1.662-3.989,2.327c-0.333,0.333-0.665,0.333-0.997,0.665
			c-0.665,0.665-1.662,0.998-2.327,1.662l0,0c-1.662,1.33-3.324,2.327-4.986,3.657C36.567,402.15,24.6,414.117,2.327,424.755
			c19.613-2.659,46.872-21.94,50.861-24.6c0.333-0.332,0.665-0.332,1.33-0.665c0.998-0.665,1.662-0.997,2.66-1.662
			c0.333,0,0.665-0.332,0.997-0.665c0.998-0.664,2.327-1.329,3.324-1.662c0.333,0,0.665-0.333,0.998-0.333
			c1.33-0.333,2.327-0.997,3.324-1.33h0.333c1.33-0.333,2.659-0.665,3.989-0.998h0.665c1.33-0.332,2.66-0.332,3.989-0.332
			c5.651,0,8.643,1.662,10.638,3.989c1.33,1.662,2.327,3.324,2.992,5.651c0.665,1.662,0.998,3.324,1.662,5.318
			c1.662,7.646,4.322,17.286,18.284,16.954l0,0c0,0,0,0,0.333,0c0.665,0,1.33,0,1.995,0c0.332,0,0.665,0,0.997,0s0.997,0,1.33-0.333
			c0.333,0,0.665,0,0.998-0.332c0.332,0,0.997,0,1.33-0.332c0.333,0,0.665,0,0.997-0.333c0.333,0,0.665,0,1.33-0.332
			c0.332,0,0.665-0.333,0.997-0.333s0.998-0.332,1.33-0.332c0.333,0,0.665,0,0.998-0.332c0.333-0.333,0.997-0.333,1.33-0.665
			c0.333,0,0.333-0.333,0.665-0.333c0.665-0.332,1.33-0.332,1.995-0.664c0,0,0,0,0.332,0c0.665-0.333,1.33-0.665,2.327-1.33l0,0
			c0.665-0.333,1.33-0.665,1.995-0.997c0,0,0.333,0,0.333-0.333c0.665-0.332,1.33-0.665,1.662-0.997l0.333-0.332
			c0.665-0.333,1.33-0.665,1.662-1.33c0,0,0.332,0,0.332-0.332c0.665-0.333,1.33-0.665,1.995-1.33c0,0,0,0,0.333,0
			c0.665-0.332,1.33-0.997,1.995-1.33l0,0c0.665-0.664,1.33-0.997,1.995-1.329c0,0,0,0,0.333,0c0,0,0,0,0-0.333
			c1.33-0.997,2.659-1.662,3.989-2.659c1.33-0.997,2.66-1.994,3.989-2.992c2.66-1.994,5.319-3.656,7.979-5.318c0,0,0,0,0.332,0
			c0.998-0.665,2.327-1.33,3.325-1.995c0.332,0,0.332-0.332,0.665-0.332c1.33-0.665,2.66-1.33,3.657-1.662
			c0.333,0,0.333-0.333,0.665-0.333c1.33-0.333,2.659-0.997,3.989-1.33c1.33-0.333,2.659-0.665,3.989-0.997c0.333,0,0.665,0,0.665,0
			c1.33-0.333,2.659-0.333,3.989-0.333l0,0c0.997,0,1.662,0,2.327,0c0.333,0,0.665,0,0.998,0c0.665,0,1.33,0.333,1.662,0.333
			s0.997,0.332,1.33,0.332h0.333c1.662,0.665,2.992,1.662,3.989,2.66c1.33,1.662,2.327,3.325,2.992,5.651
			c0.665,1.662,0.997,3.324,1.33,5.319c1.33,6.316,3.324,13.297,10.638,15.956c0,0,0,0,0.333,0s0.997,0.333,1.33,0.333
			s0.333,0,0.665,0s0.997,0.332,1.33,0.332s0.665,0,0.998,0c0.332,0,0.665,0,0.997,0c0.665,0,1.33,0,1.995,0l0,0l0,0h0.333
			c8.643,0,15.957-3.324,23.27-7.979c1.33-0.664,2.659-1.662,3.989-2.326l0,0l0,0c0.998-0.665,1.995-1.33,2.992-1.995
			c0,0,0.333,0,0.333-0.332c0.332-0.333,0.665-0.333,0.997-0.665c1.33-0.997,2.659-1.662,3.989-2.659
			c1.33-0.998,2.659-1.995,3.989-2.992c0.333-0.332,0.333-0.332,0.665-0.332c0.333-0.333,0.997-0.665,1.33-0.998
			c0.333-0.332,0.333-0.332,0.665-0.664c0.333-0.333,0.665-0.665,0.997-0.665c0.333-0.333,0.665-0.333,0.998-0.665
			s0.665-0.332,0.997-0.665c0.333-0.332,0.665-0.332,0.998-0.665c0.332-0.332,0.665-0.332,0.997-0.665
			c0.333-0.332,0.665-0.332,0.998-0.664l0.997-0.665c0.333-0.333,0.665-0.333,0.998-0.665c0.332,0,0.665-0.332,0.997-0.332
			c0.333-0.333,0.665-0.333,0.997-0.665c0.333,0,0.333-0.333,0.665-0.333c0.997-0.333,1.662-0.665,2.66-0.998
			c0.332,0,0.332-0.332,0.665-0.332c0.333-0.333,0.665-0.333,0.998-0.333c0.332,0,0.665-0.333,0.997-0.333s0.665-0.333,0.998-0.333
			c0.332,0,0.665-0.333,0.997-0.333s0.665-0.332,0.997-0.332c0.333,0,0.665,0,0.998-0.333c0.333,0,0.665-0.333,0.997-0.333
			c0.333,0,0.665,0,0.998-0.333c0.333,0,0.665,0,0.997-0.333c0.333,0,0.665,0,1.33,0c0.332,0,0.665,0,0.997,0
			c0.665,0,1.33,0,1.995,0l0,0c0.997,0,1.995,0,2.659,0.333c0.333,0,0.665,0,0.665,0c0.665,0,1.33,0.333,1.995,0.333
			c0.333,0,0.333,0,0.665,0.333c0.665,0.333,0.997,0.333,1.33,0.665c0.333,0,0.333,0.333,0.665,0.333
			c0.333,0.333,0.998,0.665,1.33,0.998c0.332,0,0.332,0.332,0.665,0.332c0.333,0.333,0.333,0.333,0.665,0.665
			s0.333,0.333,0.333,0.665c0.332,0.332,0.665,0.665,0.665,1.33l0.333,0.664c0,0.333,0.333,0.333,0.333,0.665
			c0.333,0.665,0.665,1.33,0.665,1.995v0.332c0.665,1.662,0.998,3.656,1.662,5.651c1.33,6.316,3.325,13.297,10.638,15.956
			c0,0,0,0,0.333,0c0.332,0,0.997,0.333,1.329,0.333h0.333c0.332,0,0.997,0.332,1.329,0.332c0.333,0,0.665,0,0.665,0
			c0.333,0,0.665,0,1.33,0s1.329,0,1.994,0c0,0,0,0,0.333,0c0.332,0,0.664,0,0.997,0c7.646-0.332,14.294-2.992,20.61-6.648l0,0
			C343.73,413.12,581.417,278.154,610.67,267.849"/>
	</g>
</g>
</svg>
